<svg id="visual" viewBox="0 0 900 600" width="900" height="600" xmlns="http://www.w3.org/2000/svg" xmlns:xlink="http://www.w3.org/1999/xlink" version="1.1"><rect x="0" y="0" width="900" height="600" fill="#fdf3de"></rect><defs><linearGradient id="grad1_0" x1="33.3%" y1="0%" x2="100%" y2="100%"><stop offset="20%" stop-color="#fdf3de" stop-opacity="1"></stop><stop offset="80%" stop-color="#fdf3de" stop-opacity="1"></stop></linearGradient></defs><defs><linearGradient id="grad2_0" x1="0%" y1="0%" x2="66.7%" y2="100%"><stop offset="20%" stop-color="#fdf3de" stop-opacity="1"></stop><stop offset="80%" stop-color="#fdf3de" stop-opacity="1"></stop></linearGradient></defs><g transform="translate(900, 0)"><path d="M0 297.5C-43.3 297.8 -86.6 298.2 -113.8 274.8C-141.1 251.4 -152.2 204.3 -173.9 173.9C-195.7 143.6 -228 129.9 -250.4 103.7C-272.7 77.5 -285.1 38.8 -297.5 0L0 0Z" fill="#143e79"></path></g><g transform="translate(0, 600)"><path d="M0 -297.5C27.3 -264.4 54.7 -231.3 91.5 -220.8C128.2 -210.3 174.4 -222.2 207.9 -207.9C241.3 -193.5 262 -152.9 274.8 -113.8C287.6 -74.8 292.5 -37.4 297.5 0L0 0Z" fill="#143e79"></path></g></svg>