<svg id="visual" viewBox="0 0 900 600" width="900" height="600" xmlns="http://www.w3.org/2000/svg" xmlns:xlink="http://www.w3.org/1999/xlink" version="1.1"><g stroke-width="1" stroke-linejoin="bevel"><path d="M432 303L326 367L420 396Z" fill="#133a72" stroke="#133a72"></path><path d="M432 303L267 317L326 367Z" fill="#0f2e5a" stroke="#0f2e5a"></path><path d="M420 396L529 306L432 303Z" fill="#12396f" stroke="#12396f"></path><path d="M261 532L430 492L326 367Z" fill="#12396f" stroke="#12396f"></path><path d="M326 367L430 492L420 396Z" fill="#12396f" stroke="#12396f"></path><path d="M420 396L535 406L529 306Z" fill="#103161" stroke="#103161"></path><path d="M265 211L232 293L267 317Z" fill="#133a72" stroke="#133a72"></path><path d="M267 317L194 423L326 367Z" fill="#133c76" stroke="#133c76"></path><path d="M370 171L267 317L432 303Z" fill="#0f305e" stroke="#0f305e"></path><path d="M471 483L535 406L420 396Z" fill="#103365" stroke="#103365"></path><path d="M430 492L471 483L420 396Z" fill="#0f305e" stroke="#0f305e"></path><path d="M497 210L370 171L432 303Z" fill="#12396f" stroke="#12396f"></path><path d="M529 306L497 210L432 303Z" fill="#12396f" stroke="#12396f"></path><path d="M370 171L265 211L267 317Z" fill="#12376b" stroke="#12376b"></path><path d="M535 406L561 374L529 306Z" fill="#0f305e" stroke="#0f305e"></path><path d="M529 306L600 170L497 210Z" fill="#133c76" stroke="#133c76"></path><path d="M232 293L194 423L267 317Z" fill="#0f2e5a" stroke="#0f2e5a"></path><path d="M194 423L216 474L326 367Z" fill="#12376b" stroke="#12376b"></path><path d="M216 474L261 532L326 367Z" fill="#133c76" stroke="#133c76"></path><path d="M500 600L615 460L471 483Z" fill="#12376b" stroke="#12376b"></path><path d="M615 460L619 309L561 374Z" fill="#12396f" stroke="#12396f"></path><path d="M561 374L619 309L529 306Z" fill="#0f2e5a" stroke="#0f2e5a"></path><path d="M615 460L561 374L535 406Z" fill="#103161" stroke="#103161"></path><path d="M497 210L438 102L370 171Z" fill="#113568" stroke="#113568"></path><path d="M173 106L162 184L265 211Z" fill="#103365" stroke="#103365"></path><path d="M481 61L438 102L497 210Z" fill="#12396f" stroke="#12396f"></path><path d="M500 600L471 483L430 492Z" fill="#133a72" stroke="#133a72"></path><path d="M471 483L615 460L535 406Z" fill="#103365" stroke="#103365"></path><path d="M261 532L425 600L430 492Z" fill="#143e79" stroke="#143e79"></path><path d="M265 211L162 184L232 293Z" fill="#143e79" stroke="#143e79"></path><path d="M232 293L104 329L194 423Z" fill="#133a72" stroke="#133a72"></path><path d="M275 77L265 211L370 171Z" fill="#0f305e" stroke="#0f305e"></path><path d="M619 309L600 170L529 306Z" fill="#133a72" stroke="#133a72"></path><path d="M425 600L500 600L430 492Z" fill="#12376b" stroke="#12376b"></path><path d="M162 184L104 329L232 293Z" fill="#0f305e" stroke="#0f305e"></path><path d="M194 423L72 510L216 474Z" fill="#0e2c57" stroke="#0e2c57"></path><path d="M197 600L260 600L261 532Z" fill="#12376b" stroke="#12376b"></path><path d="M261 532L260 600L425 600Z" fill="#0e2c57" stroke="#0e2c57"></path><path d="M197 600L261 532L216 474Z" fill="#12396f" stroke="#12396f"></path><path d="M104 329L99 383L194 423Z" fill="#0f2e5a" stroke="#0f2e5a"></path><path d="M438 102L275 77L370 171Z" fill="#0e2c57" stroke="#0e2c57"></path><path d="M726 381L678 293L619 309Z" fill="#0f2e5a" stroke="#0f2e5a"></path><path d="M619 309L678 293L600 170Z" fill="#113568" stroke="#113568"></path><path d="M600 170L481 61L497 210Z" fill="#0e2c57" stroke="#0e2c57"></path><path d="M438 102L437 0L275 77Z" fill="#103365" stroke="#103365"></path><path d="M134 600L197 600L216 474Z" fill="#0f305e" stroke="#0f305e"></path><path d="M275 77L173 106L265 211Z" fill="#103365" stroke="#103365"></path><path d="M162 184L112 169L104 329Z" fill="#103365" stroke="#103365"></path><path d="M173 106L112 169L162 184Z" fill="#0f2e5a" stroke="#0f2e5a"></path><path d="M0 381L72 510L99 383Z" fill="#133c76" stroke="#133c76"></path><path d="M684 117L632 109L600 170Z" fill="#12376b" stroke="#12376b"></path><path d="M600 170L632 109L481 61Z" fill="#0f305e" stroke="#0f305e"></path><path d="M615 460L726 381L619 309Z" fill="#103365" stroke="#103365"></path><path d="M720 160L684 117L600 170Z" fill="#133c76" stroke="#133c76"></path><path d="M702 516L726 381L615 460Z" fill="#103365" stroke="#103365"></path><path d="M532 0L437 0L481 61Z" fill="#143e79" stroke="#143e79"></path><path d="M481 61L437 0L438 102Z" fill="#103365" stroke="#103365"></path><path d="M275 77L175 0L173 106Z" fill="#103365" stroke="#103365"></path><path d="M0 381L99 383L104 329Z" fill="#103161" stroke="#103161"></path><path d="M99 383L72 510L194 423Z" fill="#0f2e5a" stroke="#0f2e5a"></path><path d="M500 600L630 600L615 460Z" fill="#103161" stroke="#103161"></path><path d="M72 510L134 600L216 474Z" fill="#103365" stroke="#103365"></path><path d="M630 600L702 516L615 460Z" fill="#113568" stroke="#113568"></path><path d="M437 0L271 0L275 77Z" fill="#143e79" stroke="#143e79"></path><path d="M173 106L95 93L112 169Z" fill="#0e2c57" stroke="#0e2c57"></path><path d="M572 0L532 0L481 61Z" fill="#0f305e" stroke="#0f305e"></path><path d="M720 160L600 170L678 293Z" fill="#12376b" stroke="#12376b"></path><path d="M632 109L572 0L481 61Z" fill="#0f2e5a" stroke="#0f2e5a"></path><path d="M773 218L720 160L678 293Z" fill="#12376b" stroke="#12376b"></path><path d="M115 0L95 93L173 106Z" fill="#133a72" stroke="#133a72"></path><path d="M0 270L0 381L104 329Z" fill="#143e79" stroke="#143e79"></path><path d="M0 270L104 329L112 169Z" fill="#12396f" stroke="#12396f"></path><path d="M702 516L770 411L726 381Z" fill="#0f2e5a" stroke="#0f2e5a"></path><path d="M818 322L773 218L678 293Z" fill="#0f2e5a" stroke="#0f2e5a"></path><path d="M0 195L0 270L112 169Z" fill="#113568" stroke="#113568"></path><path d="M714 0L572 0L632 109Z" fill="#0f305e" stroke="#0f305e"></path><path d="M271 0L175 0L275 77Z" fill="#133c76" stroke="#133c76"></path><path d="M825 111L714 0L684 117Z" fill="#133c76" stroke="#133c76"></path><path d="M818 322L678 293L726 381Z" fill="#12396f" stroke="#12396f"></path><path d="M95 93L0 195L112 169Z" fill="#103161" stroke="#103161"></path><path d="M0 92L0 195L95 93Z" fill="#12396f" stroke="#12396f"></path><path d="M0 381L0 528L72 510Z" fill="#0e2c57" stroke="#0e2c57"></path><path d="M72 510L0 600L134 600Z" fill="#143e79" stroke="#143e79"></path><path d="M630 600L728 600L702 516Z" fill="#0f305e" stroke="#0f305e"></path><path d="M702 516L836 520L770 411Z" fill="#0f2e5a" stroke="#0f2e5a"></path><path d="M900 427L818 322L770 411Z" fill="#0f2e5a" stroke="#0f2e5a"></path><path d="M770 411L818 322L726 381Z" fill="#0f2e5a" stroke="#0f2e5a"></path><path d="M175 0L115 0L173 106Z" fill="#143e79" stroke="#143e79"></path><path d="M0 0L0 92L95 93Z" fill="#103365" stroke="#103365"></path><path d="M728 600L769 600L702 516Z" fill="#103365" stroke="#103365"></path><path d="M0 528L0 600L72 510Z" fill="#133a72" stroke="#133a72"></path><path d="M825 111L720 160L773 218Z" fill="#103365" stroke="#103365"></path><path d="M825 111L684 117L720 160Z" fill="#143e79" stroke="#143e79"></path><path d="M684 117L714 0L632 109Z" fill="#133a72" stroke="#133a72"></path><path d="M769 600L836 520L702 516Z" fill="#133a72" stroke="#133a72"></path><path d="M900 202L825 111L773 218Z" fill="#12376b" stroke="#12376b"></path><path d="M900 293L773 218L818 322Z" fill="#0f305e" stroke="#0f305e"></path><path d="M115 0L0 0L95 93Z" fill="#133c76" stroke="#133c76"></path><path d="M900 427L900 293L818 322Z" fill="#0e2c57" stroke="#0e2c57"></path><path d="M836 520L900 427L770 411Z" fill="#12376b" stroke="#12376b"></path><path d="M900 293L900 202L773 218Z" fill="#133a72" stroke="#133a72"></path><path d="M900 600L900 534L836 520Z" fill="#12396f" stroke="#12396f"></path><path d="M836 520L900 534L900 427Z" fill="#103365" stroke="#103365"></path><path d="M900 105L820 0L825 111Z" fill="#0f305e" stroke="#0f305e"></path><path d="M825 111L820 0L714 0Z" fill="#0f305e" stroke="#0f305e"></path><path d="M900 202L900 105L825 111Z" fill="#143e79" stroke="#143e79"></path><path d="M769 600L900 600L836 520Z" fill="#0f305e" stroke="#0f305e"></path><path d="M900 105L900 0L820 0Z" fill="#0f2e5a" stroke="#0f2e5a"></path></g></svg>