<svg id="visual" viewBox="0 0 900 600" width="900" height="600" xmlns="http://www.w3.org/2000/svg" xmlns:xlink="http://www.w3.org/1999/xlink" version="1.1"><path d="M0 19L15 20C30 21 60 23 90 23C120 23 150 21 180 20C210 19 240 19 270 20C300 21 330 23 360 23C390 23 420 21 450 21C480 21 510 23 540 24C570 25 600 25 630 25C660 25 690 25 720 25C750 25 780 25 810 24C840 23 870 21 885 20L900 19L900 0L885 0C870 0 840 0 810 0C780 0 750 0 720 0C690 0 660 0 630 0C600 0 570 0 540 0C510 0 480 0 450 0C420 0 390 0 360 0C330 0 300 0 270 0C240 0 210 0 180 0C150 0 120 0 90 0C60 0 30 0 15 0L0 0Z" fill="#e6d09e"></path><path d="M0 67L15 69C30 71 60 75 90 74C120 73 150 67 180 64C210 61 240 61 270 63C300 65 330 69 360 70C390 71 420 69 450 67C480 65 510 63 540 62C570 61 600 61 630 63C660 65 690 69 720 71C750 73 780 73 810 71C840 69 870 65 885 63L900 61L900 17L885 18C870 19 840 21 810 22C780 23 750 23 720 23C690 23 660 23 630 23C600 23 570 23 540 22C510 21 480 19 450 19C420 19 390 21 360 21C330 21 300 19 270 18C240 17 210 17 180 18C150 19 120 21 90 21C60 21 30 19 15 18L0 17Z" fill="#e9d5a8"></path><path d="M0 97L15 99C30 101 60 105 90 103C120 101 150 93 180 90C210 87 240 89 270 91C300 93 330 95 360 95C390 95 420 93 450 92C480 91 510 91 540 90C570 89 600 87 630 88C660 89 690 93 720 95C750 97 780 97 810 96C840 95 870 93 885 92L900 91L900 59L885 61C870 63 840 67 810 69C780 71 750 71 720 69C690 67 660 63 630 61C600 59 570 59 540 60C510 61 480 63 450 65C420 67 390 69 360 68C330 67 300 63 270 61C240 59 210 59 180 62C150 65 120 71 90 72C60 73 30 69 15 67L0 65Z" fill="#ebdab2"></path><path d="M0 121L15 123C30 125 60 129 90 127C120 125 150 117 180 114C210 111 240 113 270 116C300 119 330 123 360 124C390 125 420 123 450 122C480 121 510 121 540 119C570 117 600 113 630 113C660 113 690 117 720 120C750 123 780 125 810 125C840 125 870 123 885 122L900 121L900 89L885 90C870 91 840 93 810 94C780 95 750 95 720 93C690 91 660 87 630 86C600 85 570 87 540 88C510 89 480 89 450 90C420 91 390 93 360 93C330 93 300 91 270 89C240 87 210 85 180 88C150 91 120 99 90 101C60 103 30 99 15 97L0 95Z" fill="#f0dfbd"></path><path d="M0 163L15 163C30 163 60 163 90 160C120 157 150 151 180 149C210 147 240 149 270 153C300 157 330 163 360 165C390 167 420 165 450 163C480 161 510 159 540 158C570 157 600 157 630 156C660 155 690 153 720 154C750 155 780 159 810 159C840 159 870 155 885 153L900 151L900 119L885 120C870 121 840 123 810 123C780 123 750 121 720 118C690 115 660 111 630 111C600 111 570 115 540 117C510 119 480 119 450 120C420 121 390 123 360 122C330 121 300 117 270 114C240 111 210 109 180 112C150 115 120 123 90 125C60 127 30 123 15 121L0 119Z" fill="#f4e3c8"></path><path d="M0 229L15 229C30 229 60 229 90 227C120 225 150 221 180 217C210 213 240 209 270 215C300 221 330 237 360 241C390 245 420 237 450 234C480 231 510 233 540 231C570 229 600 223 630 220C660 217 690 217 720 221C750 225 780 233 810 236C840 239 870 237 885 236L900 235L900 149L885 151C870 153 840 157 810 157C780 157 750 153 720 152C690 151 660 153 630 154C600 155 570 155 540 156C510 157 480 159 450 161C420 163 390 165 360 163C330 161 300 155 270 151C240 147 210 145 180 147C150 149 120 155 90 158C60 161 30 161 15 161L0 161Z" fill="#f5e5cc"></path><path d="M0 271L15 271C30 271 60 271 90 273C120 275 150 279 180 279C210 279 240 275 270 277C300 279 330 287 360 290C390 293 420 291 450 289C480 287 510 285 540 281C570 277 600 271 630 269C660 267 690 269 720 276C750 283 780 295 810 299C840 303 870 299 885 297L900 295L900 233L885 234C870 235 840 237 810 234C780 231 750 223 720 219C690 215 660 215 630 218C600 221 570 227 540 229C510 231 480 229 450 232C420 235 390 243 360 239C330 235 300 219 270 213C240 207 210 211 180 215C150 219 120 223 90 225C60 227 30 227 15 227L0 227Z" fill="#f5e5cc"></path><path d="M0 373L15 378C30 383 60 393 90 401C120 409 150 415 180 416C210 417 240 413 270 409C300 405 330 401 360 404C390 407 420 417 450 417C480 417 510 407 540 399C570 391 600 385 630 387C660 389 690 399 720 405C750 411 780 413 810 416C840 419 870 423 885 425L900 427L900 293L885 295C870 297 840 301 810 297C780 293 750 281 720 274C690 267 660 265 630 267C600 269 570 275 540 279C510 283 480 285 450 287C420 289 390 291 360 288C330 285 300 277 270 275C240 273 210 277 180 277C150 277 120 273 90 271C60 269 30 269 15 269L0 269Z" fill="#f4e3c8"></path><path d="M0 391L15 396C30 401 60 411 90 420C120 429 150 437 180 438C210 439 240 433 270 428C300 423 330 419 360 422C390 425 420 435 450 435C480 435 510 425 540 417C570 409 600 403 630 406C660 409 690 421 720 427C750 433 780 433 810 435C840 437 870 441 885 443L900 445L900 425L885 423C870 421 840 417 810 414C780 411 750 409 720 403C690 397 660 387 630 385C600 383 570 389 540 397C510 405 480 415 450 415C420 415 390 405 360 402C330 399 300 403 270 407C240 411 210 415 180 414C150 413 120 407 90 399C60 391 30 381 15 376L0 371Z" fill="#f0dfbd"></path><path d="M0 529L15 529C30 529 60 529 90 531C120 533 150 537 180 537C210 537 240 533 270 532C300 531 330 533 360 533C390 533 420 531 450 530C480 529 510 529 540 532C570 535 600 541 630 542C660 543 690 539 720 538C750 537 780 539 810 538C840 537 870 533 885 531L900 529L900 443L885 441C870 439 840 435 810 433C780 431 750 431 720 425C690 419 660 407 630 404C600 401 570 407 540 415C510 423 480 433 450 433C420 433 390 423 360 420C330 417 300 421 270 426C240 431 210 437 180 436C150 435 120 427 90 418C60 409 30 399 15 394L0 389Z" fill="#ebdab2"></path><path d="M0 565L15 565C30 565 60 565 90 567C120 569 150 573 180 573C210 573 240 569 270 568C300 567 330 569 360 569C390 569 420 567 450 566C480 565 510 565 540 567C570 569 600 573 630 573C660 573 690 569 720 568C750 567 780 569 810 569C840 569 870 567 885 566L900 565L900 527L885 529C870 531 840 535 810 536C780 537 750 535 720 536C690 537 660 541 630 540C600 539 570 533 540 530C510 527 480 527 450 528C420 529 390 531 360 531C330 531 300 529 270 530C240 531 210 535 180 535C150 535 120 531 90 529C60 527 30 527 15 527L0 527Z" fill="#e9d5a8"></path><path d="M0 601L15 601C30 601 60 601 90 601C120 601 150 601 180 601C210 601 240 601 270 601C300 601 330 601 360 601C390 601 420 601 450 601C480 601 510 601 540 601C570 601 600 601 630 601C660 601 690 601 720 601C750 601 780 601 810 601C840 601 870 601 885 601L900 601L900 563L885 564C870 565 840 567 810 567C780 567 750 565 720 566C690 567 660 571 630 571C600 571 570 567 540 565C510 563 480 563 450 564C420 565 390 567 360 567C330 567 300 565 270 566C240 567 210 571 180 571C150 571 120 567 90 565C60 563 30 563 15 563L0 563Z" fill="#e6d09e"></path></svg>