<svg id="visual" viewBox="0 0 900 600" width="900" height="600" xmlns="http://www.w3.org/2000/svg" xmlns:xlink="http://www.w3.org/1999/xlink" version="1.1"><path d="M0 43L37.5 43C75 43 150 43 225 43C300 43 375 43 450 43C525 43 600 43 675 43C750 43 825 43 862.5 43L900 43L900 0L862.5 0C825 0 750 0 675 0C600 0 525 0 450 0C375 0 300 0 225 0C150 0 75 0 37.5 0L0 0Z" fill="#eee2c9"></path><path d="M0 85L37.5 85C75 85 150 85 225 85C300 85 375 85 450 85C525 85 600 85 675 85C750 85 825 85 862.5 85L900 85L900 41L862.5 41C825 41 750 41 675 41C600 41 525 41 450 41C375 41 300 41 225 41C150 41 75 41 37.5 41L0 41Z" fill="#ebdec2"></path><path d="M0 121L37.5 121C75 121 150 121 225 121C300 121 375 121 450 121C525 121 600 121 675 121C750 121 825 121 862.5 121L900 121L900 83L862.5 83C825 83 750 83 675 83C600 83 525 83 450 83C375 83 300 83 225 83C150 83 75 83 37.5 83L0 83Z" fill="#e9dabb"></path><path d="M0 181L37.5 180C75 179 150 177 225 177C300 177 375 179 450 179C525 179 600 177 675 176C750 175 825 175 862.5 175L900 175L900 119L862.5 119C825 119 750 119 675 119C600 119 525 119 450 119C375 119 300 119 225 119C150 119 75 119 37.5 119L0 119Z" fill="#e6d6b4"></path><path d="M0 325L37.5 324C75 323 150 321 225 322C300 323 375 327 450 326C525 325 600 319 675 314C750 309 825 305 862.5 303L900 301L900 173L862.5 173C825 173 750 173 675 174C600 175 525 177 450 177C375 177 300 175 225 175C150 175 75 177 37.5 178L0 179Z" fill="#e1cfab"></path><path d="M0 415L37.5 414C75 413 150 411 225 411C300 411 375 413 450 411C525 409 600 403 675 399C750 395 825 393 862.5 392L900 391L900 299L862.5 301C825 303 750 307 675 312C600 317 525 323 450 324C375 325 300 321 225 320C150 319 75 321 37.5 322L0 323Z" fill="#dac69e"></path><path d="M0 535L37.5 535C75 535 150 535 225 536C300 537 375 539 450 538C525 537 600 533 675 531C750 529 825 529 862.5 529L900 529L900 389L862.5 390C825 391 750 393 675 397C600 401 525 407 450 409C375 411 300 409 225 409C150 409 75 411 37.5 412L0 413Z" fill="#d2bd92"></path><path d="M0 601L37.5 601C75 601 150 601 225 601C300 601 375 601 450 601C525 601 600 601 675 601C750 601 825 601 862.5 601L900 601L900 527L862.5 527C825 527 750 527 675 529C600 531 525 535 450 536C375 537 300 535 225 534C150 533 75 533 37.5 533L0 533Z" fill="#cbb486"></path></svg>